<?xml version="1.0" encoding="UTF-8"?>
<svg width="439px" height="242px" viewBox="0 0 439 242" version="1.1" xmlns="http://www.w3.org/2000/svg" xmlns:xlink="http://www.w3.org/1999/xlink">
    <!-- Generator: Sketch 48.1 (47250) - http://www.bohemiancoding.com/sketch -->
    <title>Group 4</title>
    <desc>Created with Sketch.</desc>
    <defs>
        <circle id="path-1" cx="64" cy="64" r="64"></circle>
        <filter x="-54.7%" y="-39.1%" width="209.4%" height="209.4%" filterUnits="objectBoundingBox" id="filter-2">
            <feOffset dx="0" dy="20" in="SourceAlpha" result="shadowOffsetOuter1"></feOffset>
            <feGaussianBlur stdDeviation="20" in="shadowOffsetOuter1" result="shadowBlurOuter1"></feGaussianBlur>
            <feColorMatrix values="0 0 0 0 0.411764706   0 0 0 0 0.282352941   0 0 0 0 0.980392157  0 0 0 0.1 0" type="matrix" in="shadowBlurOuter1"></feColorMatrix>
        </filter>
    </defs>
    <g id="What-we-do" stroke="none" stroke-width="1" fill="none" fill-rule="evenodd" transform="translate(-1302.000000, -1917.000000)">
        <g id="Group-7" transform="translate(907.000000, 1873.000000)">
            <g id="Group-4" transform="translate(388.000000, 36.000000)">
                <path d="M54.6650071,73.4134983 C44.8343385,73.4134983 36.8650071,65.4441668 36.8650071,55.6134983 C36.8650071,45.7828297 44.8343385,37.8134983 54.6650071,37.8134983 C64.4956756,37.8134983 72.4650071,45.7828297 72.4650071,55.6134983 C72.4650071,65.4441668 64.4956756,73.4134983 54.6650071,73.4134983 Z M125.865007,73.4134983 C116.034339,73.4134983 108.065007,65.4441668 108.065007,55.6134983 C108.065007,45.7828297 116.034339,37.8134983 125.865007,37.8134983 C135.695676,37.8134983 143.665007,45.7828297 143.665007,55.6134983 C143.665007,65.4441668 135.695676,73.4134983 125.865007,73.4134983 Z M197.065007,73.4134983 C187.234339,73.4134983 179.265007,65.4441668 179.265007,55.6134983 C179.265007,45.7828297 187.234339,37.8134983 197.065007,37.8134983 C206.895676,37.8134983 214.865007,45.7828297 214.865007,55.6134983 C214.865007,65.4441668 206.895676,73.4134983 197.065007,73.4134983 Z M54.6650071,144.613498 C44.8343385,144.613498 36.8650071,136.644167 36.8650071,126.813498 C36.8650071,116.98283 44.8343385,109.013498 54.6650071,109.013498 C64.4956756,109.013498 72.4650071,116.98283 72.4650071,126.813498 C72.4650071,136.644167 64.4956756,144.613498 54.6650071,144.613498 Z M125.865007,144.613498 C116.034339,144.613498 108.065007,136.644167 108.065007,126.813498 C108.065007,116.98283 116.034339,109.013498 125.865007,109.013498 C135.695676,109.013498 143.665007,116.98283 143.665007,126.813498 C143.665007,136.644167 135.695676,144.613498 125.865007,144.613498 Z M197.065007,144.613498 C187.234339,144.613498 179.265007,136.644167 179.265007,126.813498 C179.265007,116.98283 187.234339,109.013498 197.065007,109.013498 C206.895676,109.013498 214.865007,116.98283 214.865007,126.813498 C214.865007,136.644167 206.895676,144.613498 197.065007,144.613498 Z M54.6650071,215.813498 C44.8343385,215.813498 36.8650071,207.844167 36.8650071,198.013498 C36.8650071,188.18283 44.8343385,180.213498 54.6650071,180.213498 C64.4956756,180.213498 72.4650071,188.18283 72.4650071,198.013498 C72.4650071,207.844167 64.4956756,215.813498 54.6650071,215.813498 Z M125.865007,215.813498 C116.034339,215.813498 108.065007,207.844167 108.065007,198.013498 C108.065007,188.18283 116.034339,180.213498 125.865007,180.213498 C135.695676,180.213498 143.665007,188.18283 143.665007,198.013498 C143.665007,207.844167 135.695676,215.813498 125.865007,215.813498 Z M197.065007,215.813498 C187.234339,215.813498 179.265007,207.844167 179.265007,198.013498 C179.265007,188.18283 187.234339,180.213498 197.065007,180.213498 C206.895676,180.213498 214.865007,188.18283 214.865007,198.013498 C214.865007,207.844167 206.895676,215.813498 197.065007,215.813498 Z" id="Combined-Shape-Copy-4" fill="#FF9AD9" transform="translate(125.865007, 126.813498) rotate(-45.000000) translate(-125.865007, -126.813498) "></path>
                <path d="M255.665007,73.4134983 C245.834339,73.4134983 237.865007,65.4441668 237.865007,55.6134983 C237.865007,45.7828297 245.834339,37.8134983 255.665007,37.8134983 C265.495676,37.8134983 273.465007,45.7828297 273.465007,55.6134983 C273.465007,65.4441668 265.495676,73.4134983 255.665007,73.4134983 Z M326.865007,73.4134983 C317.034339,73.4134983 309.065007,65.4441668 309.065007,55.6134983 C309.065007,45.7828297 317.034339,37.8134983 326.865007,37.8134983 C336.695676,37.8134983 344.665007,45.7828297 344.665007,55.6134983 C344.665007,65.4441668 336.695676,73.4134983 326.865007,73.4134983 Z M398.065007,73.4134983 C388.234339,73.4134983 380.265007,65.4441668 380.265007,55.6134983 C380.265007,45.7828297 388.234339,37.8134983 398.065007,37.8134983 C407.895676,37.8134983 415.865007,45.7828297 415.865007,55.6134983 C415.865007,65.4441668 407.895676,73.4134983 398.065007,73.4134983 Z M255.665007,144.613498 C245.834339,144.613498 237.865007,136.644167 237.865007,126.813498 C237.865007,116.98283 245.834339,109.013498 255.665007,109.013498 C265.495676,109.013498 273.465007,116.98283 273.465007,126.813498 C273.465007,136.644167 265.495676,144.613498 255.665007,144.613498 Z M326.865007,144.613498 C317.034339,144.613498 309.065007,136.644167 309.065007,126.813498 C309.065007,116.98283 317.034339,109.013498 326.865007,109.013498 C336.695676,109.013498 344.665007,116.98283 344.665007,126.813498 C344.665007,136.644167 336.695676,144.613498 326.865007,144.613498 Z M398.065007,144.613498 C388.234339,144.613498 380.265007,136.644167 380.265007,126.813498 C380.265007,116.98283 388.234339,109.013498 398.065007,109.013498 C407.895676,109.013498 415.865007,116.98283 415.865007,126.813498 C415.865007,136.644167 407.895676,144.613498 398.065007,144.613498 Z M255.665007,215.813498 C245.834339,215.813498 237.865007,207.844167 237.865007,198.013498 C237.865007,188.18283 245.834339,180.213498 255.665007,180.213498 C265.495676,180.213498 273.465007,188.18283 273.465007,198.013498 C273.465007,207.844167 265.495676,215.813498 255.665007,215.813498 Z M326.865007,215.813498 C317.034339,215.813498 309.065007,207.844167 309.065007,198.013498 C309.065007,188.18283 317.034339,180.213498 326.865007,180.213498 C336.695676,180.213498 344.665007,188.18283 344.665007,198.013498 C344.665007,207.844167 336.695676,215.813498 326.865007,215.813498 Z M398.065007,215.813498 C388.234339,215.813498 380.265007,207.844167 380.265007,198.013498 C380.265007,188.18283 388.234339,180.213498 398.065007,180.213498 C407.895676,180.213498 415.865007,188.18283 415.865007,198.013498 C415.865007,207.844167 407.895676,215.813498 398.065007,215.813498 Z" id="Combined-Shape-Copy-5" fill="#FFEBF7" transform="translate(326.865007, 126.813498) rotate(-45.000000) translate(-326.865007, -126.813498) "></path>
                <g id="Group-11" transform="translate(161.000000, 63.000000)">
                    <g id="Oval">
                        <use fill="black" fill-opacity="1" filter="url(#filter-2)" xlink:href="#path-1"></use>
                        <use fill="#FFFFFF" fill-rule="evenodd" xlink:href="#path-1"></use>
                    </g>
                    <g id="Heart" transform="translate(37.000000, 37.000000)">
                        <rect id="Rectangle-2" x="0" y="0" width="54" height="54"></rect>
                        <path d="M36.9689713,37.9778004 L45.9357766,28.9835089 C46.4210198,28.4898984 46.927125,27.7251673 46.9320884,26.9847774 C46.9371543,26.2290847 46.9162923,25.9834692 45.9357766,24.986046 L43.9431532,22.9873145 L46.9320884,19.9892173 L48.9247118,21.9879488 C51.8058672,24.9802183 51.6451143,28.966026 48.7035673,31.9582955 L39.9579064,40.9758976 L41.9505298,42.9746291 L34.9983084,42.9746291 L34.9983084,35.979069 L36.9689713,37.9778004 Z M28.6827216,19.6873922 L34.3002513,25.3007655 C35.2309941,26.2308196 35.2309941,27.7387353 34.3002513,28.6687894 L28.6827216,34.2821626 C27.7519788,35.2122168 26.2429465,35.2122168 25.3122037,34.2821626 L19.694674,28.6687894 C18.7639311,27.7387353 18.7639311,26.2308196 19.694674,25.3007655 L25.3122037,19.6873922 C26.2429465,18.7573381 27.7519788,18.7573381 28.6827216,19.6873922 Z M15.965832,37.0012974 L24.9667835,45.9614681 C25.4607595,46.4463522 26.2260569,46.9520829 26.966995,46.9570426 C27.7232473,46.9621049 27.9690447,46.9412583 28.9672064,45.9614681 L30.9674178,43.9703191 L33.967735,46.9570426 L31.9675236,48.9262473 C28.9730384,51.8052709 24.9842794,51.6446369 21.9897941,48.7052664 L12.9655148,39.988021 L10.9653034,41.97917 L10.9653034,35.0101484 L17.9660434,35.0101484 L15.965832,37.0012974 Z M17.0001826,15.9876317 L8.03906458,24.9876317 C7.55412919,25.4815554 7.04834503,26.2467719 7.0433848,26.9876317 C7.03832205,27.743804 7.05917082,27.9895754 8.03906458,28.9876317 L10.0304241,30.9876317 L7.0433848,33.9876317 L5.07397192,31.9876317 C2.19464398,28.993463 2.3552949,25.0051257 5.29497617,22.010957 L14.0131432,12.9876317 L12.0217837,10.9876317 L18.9915421,10.9876317 L18.9915421,17.9876317 L17.0001826,15.9876317 Z M37.9986256,16.9987026 L28.9976741,8.03853189 C28.5036981,7.55364777 27.7384007,7.04791707 26.9974626,7.04295737 C26.2412103,7.03789515 25.9954129,7.05874172 24.9972512,8.03853189 L22.9970397,10.0296809 L19.9967226,7.04295737 L21.996934,5.07375267 C24.9914192,2.19472911 28.9801782,2.35536305 31.9746634,5.29473357 L40.9989428,14.011979 L42.9991542,12.02083 L42.9991542,18.9898516 L35.9984141,18.9898516 L37.9986256,16.9987026 Z" id="Combined-Shape" fill="#977FFF"></path>
                    </g>
                </g>
            </g>
        </g>
    </g>
</svg>