<?xml version="1.0" encoding="UTF-8"?>
<svg width="381px" height="290px" viewBox="0 0 381 290" version="1.1" xmlns="http://www.w3.org/2000/svg" xmlns:xlink="http://www.w3.org/1999/xlink">
    <!-- Generator: Sketch 48.1 (47250) - http://www.bohemiancoding.com/sketch -->
    <title>Group</title>
    <desc>Created with Sketch.</desc>
    <defs>
        <circle id="path-1" cx="64" cy="64" r="64"></circle>
        <filter x="-54.7%" y="-39.1%" width="209.4%" height="209.4%" filterUnits="objectBoundingBox" id="filter-2">
            <feOffset dx="0" dy="20" in="SourceAlpha" result="shadowOffsetOuter1"></feOffset>
            <feGaussianBlur stdDeviation="20" in="shadowOffsetOuter1" result="shadowBlurOuter1"></feGaussianBlur>
            <feColorMatrix values="0 0 0 0 0.411764706   0 0 0 0 0.282352941   0 0 0 0 0.980392157  0 0 0 0.1 0" type="matrix" in="shadowBlurOuter1"></feColorMatrix>
        </filter>
    </defs>
    <g id="What-we-do" stroke="none" stroke-width="1" fill="none" fill-rule="evenodd" transform="translate(-792.000000, -1394.000000)">
        <g id="Group-6" transform="translate(792.000000, 1394.000000)">
            <g id="Group">
                <path d="M147.584077,274.752232 C84.8533236,212.021478 84.8533236,110.314831 147.584077,47.5840774 C210.314831,-15.1466764 312.021478,-15.1466764 374.752232,47.5840774 L147.584077,274.752232 Z" id="Combined-Shape" fill="#78D9FF"></path>
                <path d="M110.336309,16 C140.80484,46.4685305 140.80484,95.8677789 110.336309,126.336309 C79.8677789,156.80484 30.4685305,156.80484 0,126.336309 L110.336309,16 Z" id="Combined-Shape-Copy-2" fill="#CCF2FF"></path>
                <g id="Group-11" transform="translate(214.000000, 103.000000)">
                    <g id="Oval">
                        <use fill="black" fill-opacity="1" filter="url(#filter-2)" xlink:href="#path-1"></use>
                        <use fill="#FFFFFF" fill-rule="evenodd" xlink:href="#path-1"></use>
                    </g>
                    <g id="Group" transform="translate(40.000000, 40.000000)">
                        <path d="M14.3302021,28 L30,28 C32.209139,28 34,26.209139 34,24 L34,4 C34,1.790861 32.209139,-4.05812251e-16 30,0 L4,0 C1.790861,4.05812251e-16 0,1.790861 0,4 L0,24 C0,26.209139 1.790861,28 4,28 L5,28 L5,32.929727 C5,34.0731072 5.8954305,35 7,35 C7.54542114,35 8.06718266,34.7694198 8.44443261,34.3616671 L14.3302021,28 Z" id="Combined-Shape" fill="#FF9AD9"></path>
                        <path d="M11.2669765,37.1975852 C11.3053203,37.1583446 11.343182,37.1185275 11.3805479,37.0781403 L14,34.2468908 L14,35.5 C14,36.8807119 15.1192881,38 16.5,38 L32.1697979,38 C32.5878493,38 32.9869347,38.1744607 33.2708411,38.4813225 L39.1566106,44.8429896 C39.2514181,44.9454628 39.374826,45 39.5,45 C39.7643301,45 40,44.7560495 40,44.429727 L40,39.5 C40,38.6715729 40.6715729,38 41.5,38 L42.5,38 C43.8807119,38 45,36.8807119 45,35.5 L45,15.5 C45,14.1192881 43.8807119,13 42.5,13 L38,13 L38,10 L42.5,10 C45.5375661,10 48,12.4624339 48,15.5 L48,35.5 C48,38.3690213 45.80325,40.7249641 43,40.9775785 L43,44.429727 C43,46.3901649 41.4448089,48 39.5,48 C38.5343317,48 37.6142166,47.5933768 36.9545241,46.8803445 L31.5140708,41 L16.5,41 C14.0548373,41 11.9823509,39.4043832 11.2669765,37.1975852 Z" id="Combined-Shape" fill="#FF9AD9" fill-rule="nonzero"></path>
                        <rect id="Rectangle" fill="#FFFFFF" x="5" y="11" width="6" height="6" rx="3"></rect>
                        <rect id="Rectangle-Copy" fill="#FFFFFF" x="14" y="11" width="6" height="6" rx="3"></rect>
                        <rect id="Rectangle-Copy-2" fill="#FFFFFF" x="23" y="11" width="6" height="6" rx="3"></rect>
                    </g>
                    <g id="Heart" transform="translate(37.000000, 37.000000)">
                        <rect id="Rectangle-2" x="0" y="0" width="54" height="54"></rect>
                    </g>
                </g>
            </g>
        </g>
    </g>
</svg>