<svg xmlns="http://www.w3.org/2000/svg" width="640" height="128" viewBox="0 0 640 128"><defs><style>.cls-1{fill:#fefefe;}.cls-2{fill:#ffc400;}.cls-3{fill:#f50057;}.cls-4{fill:#651fff;}</style></defs><title>Asset 16</title><g id="Layer_2" data-name="Layer 2"><g id="Layer_1-2" data-name="Layer 1"><path class="cls-1" d="M125.55,126.38V55.76h-13.3V38.55h13.3V31.09q0-14.77,8.63-22.93T158.35,0A56.82,56.82,0,0,1,170.5,1.62l-.25,18.18a31,31,0,0,0-7.27-.73q-13.47,0-13.47,12.42v7.06h17.77V55.76H149.51v70.62Z"/><path class="cls-1" d="M176,81.65a51.3,51.3,0,0,1,5.12-23.29,37.09,37.09,0,0,1,14.75-15.83,43.63,43.63,0,0,1,22.35-5.6q18.1,0,29.54,10.88t12.77,29.54l.17,6q0,20.21-11.49,32.43T218.34,128q-19.34,0-30.86-12.18T176,82.71Zm23.88,1.66q0,12.52,4.79,19.14t13.72,6.63q8.68,0,13.55-6.54t4.88-20.93q0-12.27-4.88-19t-13.72-6.75q-8.76,0-13.55,6.71T199.83,83.32Z"/><path class="cls-1" d="M271.64,81.65a51.3,51.3,0,0,1,5.12-23.29,37.09,37.09,0,0,1,14.75-15.83,43.63,43.63,0,0,1,22.35-5.6q18.1,0,29.54,10.88t12.77,29.54l.17,6q0,20.21-11.49,32.43T314,128q-19.34,0-30.86-12.18T271.64,82.71Zm23.88,1.66q0,12.52,4.79,19.14T314,109.09q8.68,0,13.55-6.54t4.88-20.93q0-12.27-4.88-19t-13.72-6.75q-8.76,0-13.55,6.71T295.52,83.32Z"/><path class="cls-1" d="M451.61,83.28q0,21.11-9.17,32.91T416.82,128q-14.54,0-23.22-11l-1.07,9.33H371V1.7h23.88V46.43q8.26-9.5,21.73-9.5,16.36,0,25.66,11.81T451.61,82Zm-23.88-1.7q0-13.31-4.3-19.44T410.62,56q-11.4,0-15.7,9.17V99.84q4.38,9.25,15.86,9.25T426,97.89Q427.73,92.53,427.73,81.57Z"/><path class="cls-1" d="M466.15,15.83a11.45,11.45,0,0,1,3.59-8.68q3.59-3.41,9.79-3.41t9.75,3.41a11.39,11.39,0,0,1,3.64,8.68,11.42,11.42,0,0,1-3.68,8.77,15.53,15.53,0,0,1-19.42,0A11.41,11.41,0,0,1,466.15,15.83Zm25.37,110.55h-24V38.55h24Z"/><path class="cls-1" d="M539.77,17V38.55h15.29V55.76H539.77V99.59q0,4.87,1.9,7t7.27,2.11a38.7,38.7,0,0,0,7-.57v17.78A50,50,0,0,1,541.51,128q-25.12,0-25.62-24.92V55.76H502.84V38.55h13.06V17Z"/><path class="cls-1" d="M616.78,102.11q0-4.3-4.34-6.78t-13.92-4.42q-31.9-6.57-31.89-26.62,0-11.69,9.87-19.52t25.82-7.83q17,0,27.23,7.87t10.2,20.45H615.87a11.25,11.25,0,0,0-3.31-8.32q-3.31-3.29-10.33-3.29-6,0-9.34,2.68a8.4,8.4,0,0,0-3.31,6.82,7.2,7.2,0,0,0,3.76,6.29q3.76,2.4,12.68,4.14a105.18,105.18,0,0,1,15,3.94Q640,84.33,640,101.13q0,12-10.49,19.44T602.4,128a48,48,0,0,1-20-3.94,33.35,33.35,0,0,1-13.68-10.8,24.78,24.78,0,0,1-5-14.81h22.64q.33,6.25,4.71,9.58t11.73,3.33q6.86,0,10.37-2.56A7.92,7.92,0,0,0,616.78,102.11Z"/><rect class="cls-2" x="1.06" y="35.42" width="94.13" height="26.88" rx="10" ry="10"/><rect class="cls-3" x="2.12" y="101.01" width="47.07" height="26.88" rx="10" ry="10"/><rect class="cls-4" y="68.22" width="73.04" height="26.88" rx="10" ry="10"/></g></g></svg>