<svg xmlns="http://www.w3.org/2000/svg" width="689.07" height="143.95" viewBox="0 0 689.07 143.95"><defs><style>.cls-1{fill:#39424b;}.cls-2{fill:#ffc400;}.cls-3{fill:#f50057;}.cls-4{fill:#651fff;}</style></defs><title>Asset 24</title><g id="Layer_2" data-name="Layer 2"><g id="Layer_1-2" data-name="Layer 1"><path class="cls-1" d="M174.19,142.3V70.35H160.88V52.82h13.31V45.21q0-15,8.64-23.36T207,13.54a55.91,55.91,0,0,1,12.16,1.65l-.25,18.52a30.47,30.47,0,0,0-7.28-.74q-13.48,0-13.48,12.65v7.19H216V70.35H198.17V142.3Z"/><path class="cls-1" d="M224.64,96.73A53.06,53.06,0,0,1,229.76,73a37.53,37.53,0,0,1,14.76-16.13,43.06,43.06,0,0,1,22.37-5.71q18.11,0,29.56,11.08t12.78,30.1l.17,6.12q0,20.59-11.49,33T267.06,144q-19.35,0-30.89-12.4T224.64,97.81Zm23.9,1.7q0,12.76,4.8,19.51t13.73,6.75A15.86,15.86,0,0,0,280.62,118q4.88-6.67,4.88-21.33,0-12.51-4.88-19.38t-13.73-6.87q-8.77,0-13.56,6.83T248.54,98.43Z"/><path class="cls-1" d="M320.4,96.73A53.06,53.06,0,0,1,325.53,73a37.53,37.53,0,0,1,14.76-16.13,43.06,43.06,0,0,1,22.37-5.71q18.11,0,29.56,11.08T405,92.35l.17,6.12q0,20.59-11.49,33T362.82,144q-19.35,0-30.89-12.4T320.4,97.81Zm23.9,1.7q0,12.76,4.8,19.51t13.73,6.75A15.86,15.86,0,0,0,376.39,118q4.88-6.67,4.88-21.33,0-12.51-4.88-19.38t-13.73-6.87q-8.77,0-13.56,6.83T344.3,98.43Z"/><path class="cls-1" d="M500.52,98.38q0,21.5-9.18,33.53T465.7,144q-14.56,0-23.24-11.16l-1.08,9.51h-21.5v-127h23.9V60.84q8.27-9.68,21.75-9.68,16.37,0,25.68,12t9.3,33.86Zm-23.9-1.74q0-13.56-4.3-19.81T459.5,70.6q-11.41,0-15.71,9.34v35.31q4.38,9.43,15.88,9.43t15.22-11.41Q476.62,107.81,476.62,96.65Z"/><path class="cls-1" d="M515.07,29.66a11.77,11.77,0,0,1,3.6-8.85q3.6-3.47,9.8-3.47t9.76,3.47a11.7,11.7,0,0,1,3.64,8.85,11.74,11.74,0,0,1-3.68,8.93,15.33,15.33,0,0,1-19.43,0A11.73,11.73,0,0,1,515.07,29.66ZM540.46,142.3h-24V52.82h24Z"/><path class="cls-1" d="M588.75,30.82v22h15.3V70.35h-15.3V115q0,5,1.9,7.11t7.28,2.15a38.06,38.06,0,0,0,7-.58V141.8A49.23,49.23,0,0,1,590.49,144q-25.14,0-25.64-25.39V70.35H551.79V52.82h13.07v-22Z"/><path class="cls-1" d="M665.83,117.57q0-4.38-4.34-6.91t-13.93-4.51Q615.63,99.46,615.63,79q0-11.91,9.88-19.89t25.84-8q17,0,27.25,8A25.28,25.28,0,0,1,688.82,80h-23.9a11.57,11.57,0,0,0-3.31-8.48q-3.31-3.35-10.34-3.35-6,0-9.34,2.73a8.61,8.61,0,0,0-3.31,6.95,7.36,7.36,0,0,0,3.76,6.41q3.76,2.44,12.69,4.22a103.78,103.78,0,0,1,15.05,4q18.94,6.95,18.94,24.07,0,12.24-10.5,19.81T651.44,144a47.33,47.33,0,0,1-20-4,33.48,33.48,0,0,1-13.69-11,25.55,25.55,0,0,1-5-15.09h22.66q.33,6.37,4.71,9.76T651.93,127q6.86,0,10.38-2.6A8.11,8.11,0,0,0,665.83,117.57Z"/><rect class="cls-2" x="1.58" width="140.51" height="41.31" rx="10" ry="10"/><rect class="cls-3" x="3.16" y="100.79" width="70.26" height="41.31" rx="10" ry="10"/><rect class="cls-4" y="50.39" width="109.03" height="41.31" rx="10" ry="10"/></g></g></svg>