<?xml version="1.0" standalone="no"?><!-- Generator: Gravit.io --><svg xmlns="http://www.w3.org/2000/svg" xmlns:xlink="http://www.w3.org/1999/xlink" style="isolation:isolate" viewBox="0 0 490.319 490.319" width="490.319" height="490.319"><defs><clipPath id="_clipPath_WQL352IC2FHCqW2txOP5PXGYbKjXx2Vi"><rect width="490.319" height="490.319"/></clipPath></defs><g clip-path="url(#_clipPath_WQL352IC2FHCqW2txOP5PXGYbKjXx2Vi)"><path d=" M 0 0 L 0 490.319 L 490.319 490.319 L 490.319 0 L 0 0 Z " fill="none"/><path d=" M 0 0 L 0 490.319 L 490.319 490.319 L 490.319 0 L 0 0 Z " fill="none"/><path d=" M 71.788 379.181 L 426.249 379.181 C 429.147 379.181 431.52 376.809 431.52 373.91 L 431.52 113.829 C 431.52 110.931 429.147 108.559 426.249 108.559 L 71.788 108.559 C 68.889 108.559 66.518 110.931 66.518 113.829 L 66.518 373.91 C 66.518 376.809 68.889 379.181 71.788 379.181 Z " fill="rgb(74,133,186)"/><path d=" M 0 0 L 0 490.319 L 490.319 490.319 L 490.319 0 L 0 0 Z " fill="none"/><path d=" M 426.249 108.559 L 71.788 108.559 C 68.889 108.559 66.518 110.931 66.518 113.829 L 66.518 126.622 L 431.52 126.622 L 431.52 113.829 C 431.52 110.931 429.147 108.559 426.249 108.559 Z " fill="rgb(254,254,254)"/><path d=" M 0 0 L 0 490.319 L 490.319 490.319 L 490.319 0 L 0 0 Z " fill="none"/><path d=" M 87.453 117.489 C 87.444 119.676 85.664 121.442 83.477 121.433 C 81.29 121.423 79.524 119.644 79.533 117.457 C 79.542 115.269 81.322 113.504 83.509 113.513 C 85.697 113.522 87.462 115.302 87.453 117.489 Z " fill="rgb(74,133,186)"/><path d=" M 0 0 L 0 490.319 L 490.319 490.319 L 490.319 0 L 0 0 Z " fill="none"/><path d=" M 99.773 117.539 C 99.764 119.727 97.984 121.492 95.797 121.483 C 93.61 121.474 91.844 119.695 91.853 117.507 C 91.862 115.32 93.642 113.554 95.83 113.564 C 98.017 113.573 99.782 115.352 99.773 117.539 Z " fill="rgb(74,133,186)"/><path d=" M 0 0 L 0 490.319 L 490.319 490.319 L 490.319 0 L 0 0 Z " fill="none"/><path d=" M 112.094 117.59 C 112.084 119.777 110.304 121.543 108.117 121.534 C 105.929 121.524 104.164 119.745 104.173 117.558 C 104.182 115.37 105.963 113.605 108.15 113.614 C 110.336 113.623 112.103 115.403 112.094 117.59 Z " fill="rgb(74,133,186)"/><path d=" M 0 0 L 0 490.319 L 490.319 490.319 L 490.319 0 L 0 0 Z " fill="none"/><path d=" M 403.111 219.201 L 94.927 219.201 L 94.927 144.988 L 403.111 144.988 L 403.111 219.201 Z " fill="rgb(58,119,172)"/><path d=" M 0 0 L 0 490.319 L 490.319 490.319 L 490.319 0 L 0 0 Z " fill="none"/><path d=" M 163.837 275.812 L 94.927 275.812 L 94.927 232.092 L 163.837 232.092 L 163.837 275.812 Z " fill="rgb(58,119,172)"/><path d=" M 0 0 L 0 490.319 L 490.319 490.319 L 490.319 0 L 0 0 Z " fill="none"/><path d=" M 401.818 308.968 L 94.927 308.968 L 94.927 302.871 L 401.818 302.871 L 401.818 308.968 Z " fill="rgb(58,119,172)"/><path d=" M 0 0 L 0 490.319 L 490.319 490.319 L 490.319 0 L 0 0 Z " fill="none"/><path d=" M 401.818 345.377 L 94.927 345.377 L 94.927 339.279 L 401.818 339.279 L 401.818 345.377 Z " fill="rgb(58,119,172)"/><path d=" M 0 0 L 0 490.319 L 490.319 490.319 L 490.319 0 L 0 0 Z " fill="none"/><path d=" M 401.818 360.187 L 94.927 360.187 L 94.927 354.09 L 401.818 354.09 L 401.818 360.187 Z " fill="rgb(58,119,172)"/><path d=" M 0 0 L 0 490.319 L 490.319 490.319 L 490.319 0 L 0 0 Z " fill="none"/><path d=" M 401.818 293.541 L 94.927 293.541 L 94.927 287.442 L 401.818 287.442 L 401.818 293.541 Z " fill="rgb(58,119,172)"/><path d=" M 0 0 L 0 490.319 L 490.319 490.319 L 490.319 0 L 0 0 Z " fill="none"/><path d=" M 243.382 275.812 L 174.472 275.812 L 174.472 232.092 L 243.382 232.092 L 243.382 275.812 Z " fill="rgb(58,119,172)"/><path d=" M 0 0 L 0 490.319 L 490.319 490.319 L 490.319 0 L 0 0 Z " fill="none"/><path d=" M 322.928 275.812 L 254.016 275.812 L 254.016 232.092 L 322.928 232.092 L 322.928 275.812 Z " fill="rgb(58,119,172)"/><path d=" M 0 0 L 0 490.319 L 490.319 490.319 L 490.319 0 L 0 0 Z " fill="none"/><path d=" M 402.472 275.812 L 333.562 275.812 L 333.562 232.092 L 402.472 232.092 L 402.472 275.812 Z " fill="rgb(58,119,172)"/><path d=" M 0 0 L 0 490.319 L 490.319 490.319 L 490.319 0 L 0 0 Z " fill="none"/><path d=" M 242.433 440.446 C 163.314 440.446 99.176 436.132 99.176 430.81 C 99.176 425.489 163.314 421.174 242.433 421.174 C 321.551 421.174 385.691 425.489 385.691 430.81 C 385.691 436.132 321.551 440.446 242.433 440.446 Z " fill="rgb(80,137,194)"/><path d=" M 0 0 L 0 490.319 L 490.319 490.319 L 490.319 0 L 0 0 Z " fill="none"/><path d=" M 298.877 429.075 C 298.877 429.075 313.557 431.582 329.329 431.582 C 343.948 431.582 358.053 429.075 358.053 429.075 L 356.907 426.529 C 351.866 415.341 332.795 419.692 328.465 408.146 C 324.857 419.692 305.064 415.341 300.024 426.529 L 298.877 429.075 Z " fill="rgb(228,221,224)"/><path d=" M 0 0 L 0 490.319 L 490.319 490.319 L 490.319 0 L 0 0 Z " fill="none"/><path d=" M 324.857 416.574 L 332.795 416.574 L 332.795 342.242 L 324.857 342.242 L 324.857 416.574 Z " fill="rgb(228,221,224)"/><path d=" M 0 0 L 0 490.319 L 490.319 490.319 L 490.319 0 L 0 0 Z " fill="none"/><path d=" M 327.115 410.48 L 323.652 402.905 L 316.062 405.699 L 318.169 413.493 L 327.115 410.48 Z " fill="rgb(237,197,155)"/><path d=" M 0 0 L 0 490.319 L 490.319 490.319 L 490.319 0 L 0 0 Z " fill="none"/><path d=" M 327.102 410.364 L 328.923 416.553 L 320.899 419.089 C 320.899 419.089 302.785 426.694 299.408 423.168 C 297.863 421.551 303.76 419.958 307.545 417.451 C 311.331 414.947 317.275 411.408 317.275 411.408 C 317.275 411.408 322.496 411.603 327.102 410.364 Z " fill="rgb(51,53,55)"/><path d=" M 0 0 L 0 490.319 L 490.319 490.319 L 490.319 0 L 0 0 Z " fill="none"/><path d=" M 287.017 421.674 L 285.834 413.43 L 277.763 413.968 L 277.583 422.039 L 287.017 421.674 Z " fill="rgb(237,197,155)"/><path d=" M 0 0 L 0 490.319 L 490.319 490.319 L 490.319 0 L 0 0 Z " fill="none"/><path d=" M 287.035 421.558 L 287.035 428.01 L 278.622 428.177 C 278.622 428.177 259.096 430.358 256.854 426.023 C 255.828 424.036 261.934 424.172 266.273 422.837 C 270.612 421.502 277.314 419.785 277.314 419.785 C 277.314 419.785 282.268 421.448 287.035 421.558 Z " fill="rgb(51,53,55)"/><path d=" M 0 0 L 0 490.319 L 490.319 490.319 L 490.319 0 L 0 0 Z " fill="none"/><path d=" M 214.05 279.547 L 225.199 275.848 L 235.071 278.347 C 240.629 276.903 242.478 276.983 253.858 274.057 C 263.466 271.586 274.5 266.659 274.5 266.659 L 282.68 252.947 C 287.971 253.428 299.087 259.201 299.087 259.201 C 299.087 259.201 283.882 279.889 279.551 281.332 C 275.222 282.775 246.03 286.334 234.902 285.059 C 231.397 284.655 224.538 280.946 224.538 280.946 L 215.739 282.407 L 208.878 287.038 L 207.68 286.046 L 210.409 283.057 L 214.05 279.547 Z " fill="rgb(223,178,136)"/><path d=" M 0 0 L 0 490.319 L 490.319 490.319 L 490.319 0 L 0 0 Z " fill="none"/><path d=" M 291.114 226.836 C 291.114 226.836 305.292 229.209 305.051 241.959 C 304.895 250.263 293.505 265.773 293.505 265.773 C 293.505 265.773 287.25 257.113 279.552 254.708 C 279.552 254.708 284.553 240.042 286.081 235.455 C 288.003 229.69 291.114 226.836 291.114 226.836 Z " fill="rgb(253,203,120)"/><path d=" M 0 0 L 0 490.319 L 490.319 490.319 L 490.319 0 L 0 0 Z " fill="none"/><path d=" M 314.754 355.233 L 342.898 355.233 L 342.898 340.078 L 314.754 340.078 L 314.754 355.233 Z " fill="rgb(228,221,224)"/><path d=" M 0 0 L 0 490.319 L 490.319 490.319 L 490.319 0 L 0 0 Z " fill="none"/><path d=" M 318.525 281.137 C 317.139 262.803 316.153 244.443 315.541 226.069 C 332.937 218.324 371.744 221.781 375.373 233.273 C 379.224 245.467 364.548 280.181 364.548 293.17 C 364.548 306.16 369.599 315.542 370.322 321.315 C 371.043 327.089 367.434 331.418 367.434 331.418 L 322.949 331.418 C 321.817 314.637 319.79 297.88 318.525 281.137 Z " fill="rgb(228,221,224)"/><path d=" M 0 0 L 0 490.319 L 490.319 490.319 L 490.319 0 L 0 0 Z " fill="none"/><path d=" M 318.525 281.137 C 317.081 262.03 316.072 242.894 315.467 223.745 C 334.587 219.276 364.966 223.17 368.157 233.273 C 372.008 245.467 357.331 280.181 357.331 293.17 C 357.331 306.16 362.383 315.542 363.104 321.315 C 363.827 327.089 360.218 331.418 360.218 331.418 L 322.949 331.418 C 321.817 314.637 319.79 297.88 318.525 281.137 Z " fill="rgb(254,254,254)"/><path d=" M 0 0 L 0 490.319 L 490.319 490.319 L 490.319 0 L 0 0 Z " fill="none"/><path d=" M 283.723 345.129 L 359.63 345.129 C 363.941 345.129 367.434 341.635 367.434 337.325 L 367.434 331.418 L 283.723 331.418 L 283.723 345.129 Z " fill="rgb(254,254,254)"/><path d=" M 0 0 L 0 490.319 L 490.319 490.319 L 490.319 0 L 0 0 Z " fill="none"/><path d=" M 299.599 299.905 C 299.599 299.905 259.552 323.7 257.17 333.523 C 254.329 345.246 273.536 414.666 273.536 414.666 C 278.066 417.713 286.462 416.684 289.552 413.911 C 289.552 413.911 274.101 354.511 275.784 350.543 C 279.906 340.829 314.994 329.253 326.06 318.669 C 337.125 308.085 338.087 297.981 338.087 297.981 L 299.599 299.905 Z " fill="rgb(63,55,79)"/><path d=" M 0 0 L 0 490.319 L 490.319 490.319 L 490.319 0 L 0 0 Z " fill="none"/><path d=" M 345.381 289.265 C 345.381 289.265 359.022 317.706 346.755 329.253 C 341.138 334.54 307.537 329.734 305.613 335.027 L 325.898 402.419 C 325.898 402.419 322.322 404.594 315.104 408.203 C 315.104 408.203 272.898 333.824 277.228 324.202 C 281.558 314.58 310.665 309.046 312.108 303.754 C 313.551 298.462 314.514 289.802 314.514 289.802 L 345.381 289.265 Z " fill="rgb(70,63,87)"/><path d=" M 0 0 L 0 490.319 L 490.319 490.319 L 490.319 0 L 0 0 Z " fill="none"/><path d=" M 287.516 212.119 C 288.387 215.422 289.935 219.059 293.177 220.134 C 296.156 221.122 299.322 219.527 302.019 217.921 C 305.193 216.031 308.41 213.959 310.439 210.874 C 313.52 206.192 316.01 200.472 315.664 194.878 C 315.543 192.9 312.649 190.476 311.449 188.9 C 310.601 187.787 309.335 187.078 308.072 186.477 C 305.073 185.049 301.872 184.049 298.592 183.515 C 293.118 182.623 287.032 183.847 285.937 189.857 C 284.635 197.013 285.681 205.16 287.516 212.119 Z " fill="rgb(237,197,155)"/><path d=" M 0 0 L 0 490.319 L 490.319 490.319 L 490.319 0 L 0 0 Z " fill="none"/><path d=" M 295.519 199.371 C 295.519 200.198 296.188 200.868 297.014 200.868 C 297.841 200.868 298.511 200.198 298.511 199.371 C 298.511 198.545 297.841 197.875 297.014 197.875 C 296.188 197.875 295.519 198.545 295.519 199.371 Z " fill="rgb(80,58,78)"/><path d=" M 0 0 L 0 490.319 L 490.319 490.319 L 490.319 0 L 0 0 Z " fill="none"/><path d=" M 287.021 199.371 C 287.021 200.198 287.692 200.868 288.518 200.868 C 289.345 200.868 290.014 200.198 290.014 199.371 C 290.014 198.545 289.345 197.875 288.518 197.875 C 287.692 197.875 287.021 198.545 287.021 199.371 Z " fill="rgb(80,58,78)"/><path d=" M 0 0 L 0 490.319 L 490.319 490.319 L 490.319 0 L 0 0 Z " fill="none"/><path d=" M 298.35 195.356 C 296.003 195.356 294.092 197.262 294.092 199.604 C 294.092 201.947 296.003 203.852 298.35 203.852 C 300.698 203.852 302.607 201.947 302.607 199.604 C 302.607 197.262 300.698 195.356 298.35 195.356 Z  M 298.35 204.817 C 295.472 204.817 293.129 202.478 293.129 199.604 C 293.129 196.731 295.472 194.392 298.35 194.392 C 301.229 194.392 303.57 196.731 303.57 199.604 C 303.57 202.478 301.229 204.817 298.35 204.817 Z " fill="rgb(80,58,78)"/><path d=" M 0 0 L 0 490.319 L 490.319 490.319 L 490.319 0 L 0 0 Z " fill="none"/><path d=" M 290.491 196.828 L 289.72 196.246 C 290.363 195.398 291.311 194.898 292.393 194.837 C 293.561 194.768 294.739 195.243 295.555 196.1 L 294.856 196.765 C 294.233 196.11 293.321 195.752 292.448 195.799 C 291.652 195.844 290.958 196.209 290.491 196.828 Z " fill="rgb(80,58,78)"/><path d=" M 0 0 L 0 490.319 L 490.319 490.319 L 490.319 0 L 0 0 Z " fill="none"/><path d=" M 286.837 195.356 C 284.49 195.356 282.58 197.262 282.58 199.604 C 282.58 201.947 284.49 203.852 286.837 203.852 C 289.185 203.852 291.094 201.947 291.094 199.604 C 291.094 197.262 289.185 195.356 286.837 195.356 Z  M 286.837 204.817 C 283.958 204.817 281.617 202.478 281.617 199.604 C 281.617 196.731 283.958 194.392 286.837 194.392 C 289.717 194.392 292.057 196.731 292.057 199.604 C 292.057 202.478 289.717 204.817 286.837 204.817 Z " fill="rgb(80,58,78)"/><path d=" M 0 0 L 0 490.319 L 490.319 490.319 L 490.319 0 L 0 0 Z " fill="none"/><path d=" M 326.121 221.123 C 326.121 221.123 326.06 220.042 322.211 219.08 C 321.107 218.805 319.726 218.803 318.847 218.034 C 315.733 215.31 312.871 210.242 311.809 206.506 C 311.652 205.952 311.497 205.366 311.644 204.81 C 309.043 207.015 306.529 209.322 304.109 211.725 C 303.282 212.548 298.272 212.082 298.877 213.198 C 299.046 213.51 300.323 216.43 301.578 219.258 C 299.148 220.849 296.472 222.929 296.472 222.929 L 293.105 241.692 L 302.967 247.225 C 302.967 247.225 314.031 244.819 321.249 240.971 C 328.465 237.122 326.121 221.123 326.121 221.123 Z " fill="rgb(237,197,155)"/><path d=" M 0 0 L 0 490.319 L 490.319 490.319 L 490.319 0 L 0 0 Z " fill="none"/><path d=" M 322.211 219.08 C 322.211 219.08 319.325 224.373 312.108 227.5 C 304.891 230.627 298.396 221.246 298.396 221.246 L 291.114 226.836 C 291.114 226.836 290.458 252.413 293.585 266.366 C 296.712 280.318 299.599 299.905 299.599 299.905 C 299.599 299.905 302.825 304.634 306.946 304.914 C 311.989 305.255 318.935 301.306 329.909 303.274 C 342.084 305.457 351.148 303.541 351.148 303.541 C 351.148 303.541 341.782 257.774 339.616 248.634 C 337.451 239.492 331.833 220.764 331.833 220.764 C 331.833 220.764 327.022 219.561 322.211 219.08 Z " fill="rgb(249,168,57)"/><path d=" M 0 0 L 0 490.319 L 490.319 490.319 L 490.319 0 L 0 0 Z " fill="none"/><path d=" M 194.771 287.22 L 236.873 287.22 L 236.873 283.587 L 191.821 283.587 L 191.821 284.27 C 191.821 285.899 193.142 287.22 194.771 287.22 Z " fill="rgb(228,221,224)"/><path d=" M 0 0 L 0 490.319 L 490.319 490.319 L 490.319 0 L 0 0 Z " fill="none"/><path d=" M 208.093 242.187 C 209.345 242.188 210.463 242.973 210.889 244.149 L 225.196 283.636 L 224.313 284.003 L 224.545 284.693 L 191.821 283.587 L 177.893 246.193 C 177.169 244.248 178.606 242.178 180.682 242.178 L 208.093 242.187 Z " fill="rgb(254,254,254)"/><path d=" M 0 0 L 0 490.319 L 490.319 490.319 L 490.319 0 L 0 0 Z " fill="none"/><path d=" M 196.898 265.565 C 197.868 269.29 199.772 272.261 201.148 272.2 C 202.524 272.14 202.854 269.07 201.884 265.345 C 200.913 261.618 199.01 258.648 197.634 258.709 C 196.257 258.77 195.927 261.839 196.898 265.565 Z " fill="rgb(228,221,224)"/><path d=" M 0 0 L 0 490.319 L 490.319 490.319 L 490.319 0 L 0 0 Z " fill="none"/><path d=" M 292.423 196.138 C 292.478 199.023 291.315 201.187 290.11 203.714 C 289.581 204.821 289.133 206.335 289.567 207.551 C 289.631 207.726 289.785 207.874 289.983 207.868 C 291.102 207.834 292.384 207.065 293.401 206.609 C 293.82 206.422 293.52 205.704 293.086 205.862 C 292.608 206.036 292.121 206.288 291.633 206.421 C 290.594 206.705 290.417 206.873 290.376 205.772 C 290.325 204.413 291.537 202.933 292.046 201.7 C 292.79 199.889 293.068 198.086 292.904 196.138 C 292.877 195.835 292.417 195.824 292.423 196.138 Z " fill="rgb(80,58,78)"/><path d=" M 0 0 L 0 490.319 L 490.319 490.319 L 490.319 0 L 0 0 Z " fill="none"/><path d=" M 296.293 193.482 C 296.88 193.674 297.512 193.661 298.125 193.716 C 298.771 193.774 299.412 193.862 300.056 193.938 C 300.888 194.036 301.09 192.598 300.256 192.466 C 299.036 192.273 297.507 191.969 296.293 192.27 C 295.665 192.427 295.726 193.296 296.293 193.482 Z " fill="rgb(80,58,78)"/><path d=" M 0 0 L 0 490.319 L 490.319 490.319 L 490.319 0 L 0 0 Z " fill="none"/><path d=" M 286.695 193.503 C 287.717 193.669 288.757 193.495 289.794 193.565 C 290.764 193.631 290.732 192.173 289.794 192.073 C 288.72 191.958 287.469 191.981 286.585 192.658 C 286.314 192.868 286.255 193.432 286.695 193.503 Z " fill="rgb(80,58,78)"/><path d=" M 0 0 L 0 490.319 L 490.319 490.319 L 490.319 0 L 0 0 Z " fill="none"/><path d=" M 303.105 198.643 C 304.127 198.525 305.089 198.137 306.067 197.829 C 307.034 197.525 308.103 197.306 308.973 196.78 C 309.261 196.606 309.148 196.13 308.799 196.137 C 307.781 196.156 306.765 196.56 305.806 196.881 C 304.834 197.204 303.809 197.492 302.945 198.054 C 302.709 198.209 302.77 198.681 303.105 198.643 Z " fill="rgb(80,58,78)"/><path d=" M 0 0 L 0 490.319 L 490.319 490.319 L 490.319 0 L 0 0 Z " fill="none"/><path d=" M 295.605 191.107 C 290.925 190.798 286.001 190.771 281.91 188.639 C 279.92 187.604 278.135 185.95 277.754 183.865 C 277.374 181.779 278.9 179.359 281.176 179.21 C 281.645 179.179 282.155 179.231 282.547 178.991 C 283.049 178.683 283.132 178.045 283.207 177.492 C 283.715 173.781 286.837 170.038 290.87 170.129 C 294.16 170.202 297.221 172.734 300.405 171.967 C 301.386 171.732 302.246 171.2 303.144 170.766 C 305.846 169.462 309.027 169.03 312.019 169.561 C 315.176 170.121 318.524 172.612 317.751 175.505 C 317.493 176.472 316.801 177.312 316.615 178.293 C 315.956 181.793 321.532 183.537 322.635 186.94 C 323.637 190.036 320.575 193.119 320.812 196.344 C 320.941 198.136 321.987 200.243 320.622 201.518 C 319.894 202.199 318.651 202.368 318.163 203.214 C 317.498 204.364 318.736 205.671 318.845 206.973 C 318.979 208.587 317.135 209.941 315.396 209.804 C 313.657 209.667 312.21 208.382 311.526 206.893 C 310.841 205.402 310.79 203.734 310.844 202.116 C 313.79 201.289 315.603 196.434 312.831 195.194 C 311.354 194.533 309.781 196.137 309.221 197.498 C 306.296 192.855 301.625 191.107 295.605 191.107 Z " fill="rgb(70,63,87)"/><path d=" M 0 0 L 0 490.319 L 490.319 490.319 L 490.319 0 L 0 0 Z " fill="none"/><path d=" M 307.562 198.578 C 306.59 200.817 305.617 203.056 304.645 205.295 C 304.255 206.193 303.842 207.122 303.097 207.757 C 301.96 208.726 300.297 208.788 298.832 208.491 C 297.366 208.195 294.568 207.39 293.079 207.518 C 289.677 207.809 287.173 209.439 286.956 209.85 C 286.52 210.681 287.133 211.975 287.145 212.914 C 287.16 213.901 287.003 214.916 286.495 215.761 C 286.156 216.327 285.675 216.791 285.223 217.273 C 284.015 218.559 282.928 220.162 283.026 221.923 C 283.161 224.332 285.38 226.014 287.389 227.348 C 288.675 228.202 290.008 229.076 291.526 229.355 C 292.544 229.544 293.591 229.452 294.622 229.361 C 296.772 229.171 298.94 228.977 301.004 228.343 C 303.068 227.709 305.045 226.594 306.342 224.869 C 307.449 223.396 307.991 221.586 308.507 219.817 C 309.339 216.955 310.162 214.054 310.266 211.076 C 310.362 208.284 309.824 205.515 309.541 202.736 C 309.295 200.311 309.244 197.866 309.386 195.433 C 309.404 195.137 309.436 194.419 308.999 194.357 C 308.513 194.289 308.683 195.019 308.616 195.322 C 308.364 196.465 308.029 197.501 307.562 198.578 Z " fill="rgb(70,63,87)"/><path d=" M 0 0 L 0 490.319 L 490.319 490.319 L 490.319 0 L 0 0 Z " fill="none"/><path d=" M 289.619 211.352 C 289.158 212.351 289.395 213.63 290.184 214.397 C 290.54 214.743 291.027 214.993 291.521 214.938 C 292.014 214.882 292.475 214.443 292.435 213.948 C 292.42 213.764 292.347 213.565 292.444 213.41 C 292.538 213.258 292.744 213.234 292.922 213.224 C 293.586 213.189 294.397 213.231 294.709 213.818 C 294.804 213.997 294.836 214.205 294.944 214.376 C 295.2 214.783 295.768 214.834 296.249 214.795 C 296.939 214.738 297.621 214.586 298.271 214.345 C 298.6 214.221 298.931 214.069 299.172 213.812 C 299.412 213.555 299.547 213.174 299.427 212.842 C 299.327 212.568 299.078 212.38 298.84 212.21 C 296.759 210.732 291.293 207.73 289.619 211.352 Z " fill="rgb(237,197,155)"/><path d=" M 0 0 L 0 490.319 L 490.319 490.319 L 490.319 0 L 0 0 Z " fill="none"/><path d=" M 290.65 211.33 C 291.744 212.019 294.035 212.056 295.088 211.257 C 295.34 211.065 295.285 210.619 294.916 210.622 C 294.226 210.626 293.558 210.898 292.859 210.933 C 292.161 210.968 291.473 210.827 290.778 210.862 C 290.529 210.873 290.434 211.195 290.65 211.33 Z " fill="rgb(80,58,78)"/><path d=" M 0 0 L 0 490.319 L 490.319 490.319 L 490.319 0 L 0 0 Z " fill="none"/><path d=" M 320.027 335.522 C 320.027 335.522 318.64 296.697 327.308 294.131 C 335.975 291.568 355.046 292.301 355.046 292.301 L 356.778 299.26 C 356.778 299.26 331.815 297.429 328.348 302.19 C 324.881 306.952 328.348 335.889 328.348 335.889 L 320.027 335.522 Z " fill="rgb(254,254,254)"/><path d=" M 0 0 L 0 490.319 L 490.319 490.319 L 490.319 0 L 0 0 Z " fill="none"/><path d=" M 250.188 278.338 L 261.338 274.639 L 271.209 277.138 C 276.766 275.693 278.616 275.774 289.996 272.848 C 299.605 270.377 310.637 265.449 310.637 265.449 L 323.159 246.74 C 328.452 247.223 335.226 257.993 335.226 257.993 C 335.226 257.993 320.02 278.68 315.69 280.123 C 311.36 281.566 278.33 285.397 267.202 284.12 C 263.696 283.719 257.499 279.882 257.499 279.882 L 251.878 281.199 L 245.016 285.829 L 243.819 284.838 L 246.548 281.848 L 250.188 278.338 Z " fill="rgb(237,197,155)"/><path d=" M 0 0 L 0 490.319 L 490.319 490.319 L 490.319 0 L 0 0 Z " fill="none"/><path d=" M 331.833 220.764 C 331.833 220.764 346.747 223.17 346.507 235.919 C 346.349 244.223 334.96 259.734 334.96 259.734 C 334.96 259.734 328.706 251.074 321.009 248.668 C 321.009 248.668 327.022 236.882 327.503 232.07 C 327.984 227.259 331.833 220.764 331.833 220.764 Z " fill="rgb(253,203,120)"/><path d=" M 0 0 L 0 490.319 L 490.319 490.319 L 490.319 0 L 0 0 Z " fill="none"/><path d=" M 228.145 287.22 L 270.248 287.22 L 270.248 283.587 L 225.196 283.587 L 225.196 284.27 C 225.196 285.899 226.516 287.22 228.145 287.22 Z " fill="rgb(254,254,254)"/><path d=" M 0 0 L 0 490.319 L 490.319 490.319 L 490.319 0 L 0 0 Z " fill="none"/><path d=" M 251.025 285.868 L 266.043 285.868 L 266.043 284.741 L 251.025 284.741 L 251.025 285.868 Z " fill="rgb(228,221,224)"/><path d=" M 0 0 L 0 490.319 L 490.319 490.319 L 490.319 0 L 0 0 Z " fill="none"/><path d=" M 246.552 285.868 L 248.773 285.868 L 248.773 284.741 L 246.552 284.741 L 246.552 285.868 Z " fill="rgb(228,221,224)"/><path d=" M 0 0 L 0 490.319 L 490.319 490.319 L 490.319 0 L 0 0 Z " fill="none"/><path d=" M 156.403 271.966 L 154.381 257.06 L 155.108 254.349 L 156.733 256.621 L 158.604 271.818 L 156.403 271.966 Z " fill="rgb(254,254,254)"/><path d=" M 0 0 L 0 490.319 L 490.319 490.319 L 490.319 0 L 0 0 Z " fill="none"/><path d=" M 166.21 272.945 L 168.327 258.052 L 169.767 255.641 L 170.711 258.27 L 168.369 273.402 L 166.21 272.945 Z " fill="rgb(254,254,254)"/><path d=" M 0 0 L 0 490.319 L 490.319 490.319 L 490.319 0 L 0 0 Z " fill="none"/><path d=" M 159.377 274.099 L 159.56 258.84 L 160.863 256.434 L 161.982 258.88 L 161.772 274.119 L 159.377 274.099 Z " fill="rgb(254,254,254)"/><path d=" M 0 0 L 0 490.319 L 490.319 490.319 L 490.319 0 L 0 0 Z " fill="none"/><path d=" M 168.438 288.823 L 156.902 288.823 L 154.81 269.695 L 169.962 269.695 L 168.438 288.823 Z " fill="rgb(253,203,120)"/><path d=" M 0 0 L 0 490.319 L 490.319 490.319 L 490.319 0 L 0 0 Z " fill="none"/><path d=" M 317.47 433.54 L 320.235 433.54 L 289.089 298.035 L 283.223 298.035 L 317.47 433.54 Z " fill="rgb(254,254,254)"/><path d=" M 0 0 L 0 490.319 L 490.319 490.319 L 490.319 0 L 0 0 Z " fill="none"/><path d=" M 233.076 432.122 L 235.84 432.122 L 255.88 298.035 L 250.013 298.035 L 233.076 432.122 Z " fill="rgb(254,254,254)"/><path d=" M 0 0 L 0 490.319 L 490.319 490.319 L 490.319 0 L 0 0 Z " fill="none"/><path d=" M 191.106 432.941 L 193.87 432.941 L 171.852 298.035 L 165.987 298.035 L 191.106 432.941 Z " fill="rgb(254,254,254)"/><path d=" M 0 0 L 0 490.319 L 490.319 490.319 L 490.319 0 L 0 0 Z " fill="none"/><path d=" M 113.511 431.507 L 116.275 431.507 L 142.777 298.035 L 136.912 298.035 L 113.511 431.507 Z " fill="rgb(254,254,254)"/><path d=" M 0 0 L 0 490.319 L 490.319 490.319 L 490.319 0 L 0 0 Z " fill="none"/><path d=" M 159.562 298.035 L 305.664 298.035 L 305.664 291.977 L 159.562 291.977 L 159.562 298.035 Z " fill="rgb(110,163,211)"/><path d=" M 0 0 L 0 490.319 L 490.319 490.319 L 490.319 0 L 0 0 Z " fill="none"/><path d=" M 112.712 298.035 L 247.443 298.035 L 247.443 291.977 L 112.712 291.977 L 112.712 298.035 Z " fill="rgb(131,176,221)"/><path d=" M 0 0 L 0 490.319 L 490.319 490.319 L 490.319 0 L 0 0 Z " fill="none"/><path d=" M 162.811 295.017 L 319.069 295.017 L 319.069 286.91 L 162.811 286.91 L 162.811 295.017 Z " fill="rgb(131,176,221)"/><path d=" M 0 0 L 0 490.319 L 490.319 490.319 L 490.319 0 L 0 0 Z " fill="none"/><path d=" M 92.226 295.017 L 237.113 295.017 L 237.113 286.91 L 92.226 286.91 L 92.226 295.017 Z " fill="rgb(187,212,238)"/><path d=" M 0 0 L 0 490.319 L 490.319 490.319 L 490.319 0 L 0 0 Z " fill="none"/><path d=" M 0 0 L 0 490.319 L 490.319 490.319 L 490.319 0 L 0 0 Z " fill="none"/><path d=" M 0 0 L 0 490.319 L 490.319 490.319 L 490.319 0 L 0 0 Z " fill="none"/><path d=" M 0 0 L 0 490.319 L 490.319 490.319 L 490.319 0 L 0 0 Z " fill="none"/><path d=" M 0 0 L 0 490.319 L 490.319 490.319 L 490.319 0 L 0 0 Z " fill="none"/><path d=" M 0 0 L 0 490.319 L 490.319 490.319 L 490.319 0 L 0 0 Z " fill="none"/><path d=" M 0 0 L 0 490.319 L 490.319 490.319 L 490.319 0 L 0 0 Z " fill="none"/><path d=" M 0 0 L 0 490.319 L 490.319 490.319 L 490.319 0 L 0 0 Z " fill="none"/><path d=" M 0 0 L 0 490.319 L 490.319 490.319 L 490.319 0 L 0 0 Z " fill="none"/><path d=" M 0 0 L 0 490.319 L 490.319 490.319 L 490.319 0 L 0 0 Z " fill="none"/><path d=" M 0 0 L 0 490.319 L 490.319 490.319 L 490.319 0 L 0 0 Z " fill="none"/><path d=" M 0 0 L 0 490.319 L 490.319 490.319 L 490.319 0 L 0 0 Z " fill="none"/><path d=" M 0 0 L 0 490.319 L 490.319 490.319 L 490.319 0 L 0 0 Z " fill="none"/><path d=" M 0 0 L 0 490.319 L 490.319 490.319 L 490.319 0 L 0 0 Z " fill="none"/><path d=" M 0 0 L 0 490.319 L 490.319 490.319 L 490.319 0 L 0 0 Z " fill="none"/><path d=" M 0 0 L 0 490.319 L 490.319 490.319 L 490.319 0 L 0 0 Z " fill="none"/><path d=" M 0 0 L 0 490.319 L 490.319 490.319 L 490.319 0 L 0 0 Z " fill="none"/><path d=" M 0 0 L 0 490.319 L 490.319 490.319 L 490.319 0 L 0 0 Z " fill="none"/><path d=" M 0 0 L 0 490.319 L 490.319 490.319 L 490.319 0 L 0 0 Z " fill="none"/><path d=" M 0 0 L 0 490.319 L 490.319 490.319 L 490.319 0 L 0 0 Z " fill="none"/><path d=" M 0 0 L 0 490.319 L 490.319 490.319 L 490.319 0 L 0 0 Z " fill="none"/><path d=" M 0 0 L 0 490.319 L 490.319 490.319 L 490.319 0 L 0 0 Z " fill="none"/><path d=" M 0 0 L 0 490.319 L 490.319 490.319 L 490.319 0 L 0 0 Z " fill="none"/><path d=" M 0 0 L 0 490.319 L 490.319 490.319 L 490.319 0 L 0 0 Z " fill="none"/><path d=" M 0 0 L 0 490.319 L 490.319 490.319 L 490.319 0 L 0 0 Z " fill="none"/><path d=" M 0 0 L 0 490.319 L 490.319 490.319 L 490.319 0 L 0 0 Z " fill="none"/><path d=" M 0 0 L 0 490.319 L 490.319 490.319 L 490.319 0 L 0 0 Z " fill="none"/><path d=" M 0 0 L 0 490.319 L 490.319 490.319 L 490.319 0 L 0 0 Z " fill="none"/><path d=" M 0 0 L 0 490.319 L 490.319 490.319 L 490.319 0 L 0 0 Z " fill="none"/><path d=" M 0 0 L 0 490.319 L 490.319 490.319 L 490.319 0 L 0 0 Z " fill="none"/><path d=" M 0 0 L 0 490.319 L 490.319 490.319 L 490.319 0 L 0 0 Z " fill="none"/><path d=" M 0 0 L 0 490.319 L 490.319 490.319 L 490.319 0 L 0 0 Z " fill="none"/><path d=" M 0 0 L 0 490.319 L 490.319 490.319 L 490.319 0 L 0 0 Z " fill="none"/></g></svg>